<mxfile host="app.diagrams.net" agent="Mozilla/5.0 (Macintosh; Intel Mac OS X 10_15_7) AppleWebKit/537.36 (KHTML, like Gecko) Chrome/129.0.0.0 Safari/537.36" version="24.8.0">
  <diagram name="第 1 页" id="r06FoLyysgKDfk4ss8ph">
    <mxGraphModel dx="1853" dy="650" grid="1" gridSize="10" guides="1" tooltips="1" connect="1" arrows="1" fold="1" page="1" pageScale="1" pageWidth="827" pageHeight="1169" math="0" shadow="0">
      <root>
        <mxCell id="0" />
        <mxCell id="1" parent="0" />
        <mxCell id="fn0Ux1Jt2qbfrXhC0f1r-3" value="" style="edgeStyle=orthogonalEdgeStyle;rounded=0;orthogonalLoop=1;jettySize=auto;html=1;" edge="1" parent="1" source="fn0Ux1Jt2qbfrXhC0f1r-1" target="fn0Ux1Jt2qbfrXhC0f1r-2">
          <mxGeometry relative="1" as="geometry" />
        </mxCell>
        <mxCell id="fn0Ux1Jt2qbfrXhC0f1r-1" value="标签审批" style="ellipse;whiteSpace=wrap;html=1;" vertex="1" parent="1">
          <mxGeometry x="230" y="110" width="100" height="50" as="geometry" />
        </mxCell>
        <mxCell id="fn0Ux1Jt2qbfrXhC0f1r-5" value="" style="edgeStyle=orthogonalEdgeStyle;rounded=0;orthogonalLoop=1;jettySize=auto;html=1;" edge="1" parent="1" source="fn0Ux1Jt2qbfrXhC0f1r-2" target="fn0Ux1Jt2qbfrXhC0f1r-4">
          <mxGeometry relative="1" as="geometry" />
        </mxCell>
        <mxCell id="fn0Ux1Jt2qbfrXhC0f1r-2" value="校验标签是否存在" style="rhombus;whiteSpace=wrap;html=1;" vertex="1" parent="1">
          <mxGeometry x="215" y="210" width="130" height="65" as="geometry" />
        </mxCell>
        <mxCell id="fn0Ux1Jt2qbfrXhC0f1r-7" value="" style="edgeStyle=orthogonalEdgeStyle;rounded=0;orthogonalLoop=1;jettySize=auto;html=1;" edge="1" parent="1" source="fn0Ux1Jt2qbfrXhC0f1r-4" target="fn0Ux1Jt2qbfrXhC0f1r-6">
          <mxGeometry relative="1" as="geometry" />
        </mxCell>
        <mxCell id="fn0Ux1Jt2qbfrXhC0f1r-4" value="校验标签是否&lt;div&gt;存在待审批记录&lt;/div&gt;" style="rhombus;whiteSpace=wrap;html=1;" vertex="1" parent="1">
          <mxGeometry x="220" y="347.5" width="120" height="82.5" as="geometry" />
        </mxCell>
        <mxCell id="fn0Ux1Jt2qbfrXhC0f1r-9" value="" style="edgeStyle=orthogonalEdgeStyle;rounded=0;orthogonalLoop=1;jettySize=auto;html=1;" edge="1" parent="1" source="fn0Ux1Jt2qbfrXhC0f1r-6">
          <mxGeometry relative="1" as="geometry">
            <mxPoint x="450" y="560.01" as="targetPoint" />
          </mxGeometry>
        </mxCell>
        <mxCell id="fn0Ux1Jt2qbfrXhC0f1r-10" value="退回" style="edgeLabel;html=1;align=center;verticalAlign=middle;resizable=0;points=[];" vertex="1" connectable="0" parent="fn0Ux1Jt2qbfrXhC0f1r-9">
          <mxGeometry x="-0.4017" y="-4" relative="1" as="geometry">
            <mxPoint as="offset" />
          </mxGeometry>
        </mxCell>
        <mxCell id="fn0Ux1Jt2qbfrXhC0f1r-12" value="" style="edgeStyle=orthogonalEdgeStyle;rounded=0;orthogonalLoop=1;jettySize=auto;html=1;" edge="1" parent="1" source="fn0Ux1Jt2qbfrXhC0f1r-6" target="fn0Ux1Jt2qbfrXhC0f1r-11">
          <mxGeometry relative="1" as="geometry">
            <mxPoint x="65" y="497" as="sourcePoint" />
          </mxGeometry>
        </mxCell>
        <mxCell id="fn0Ux1Jt2qbfrXhC0f1r-27" value="通过" style="edgeLabel;html=1;align=center;verticalAlign=middle;resizable=0;points=[];" vertex="1" connectable="0" parent="fn0Ux1Jt2qbfrXhC0f1r-12">
          <mxGeometry x="-0.5117" y="-1" relative="1" as="geometry">
            <mxPoint as="offset" />
          </mxGeometry>
        </mxCell>
        <mxCell id="fn0Ux1Jt2qbfrXhC0f1r-6" value="是否审批通过" style="rhombus;whiteSpace=wrap;html=1;" vertex="1" parent="1">
          <mxGeometry x="225" y="470" width="110" height="48.75" as="geometry" />
        </mxCell>
        <mxCell id="fn0Ux1Jt2qbfrXhC0f1r-14" value="" style="edgeStyle=orthogonalEdgeStyle;rounded=0;orthogonalLoop=1;jettySize=auto;html=1;" edge="1" parent="1" source="fn0Ux1Jt2qbfrXhC0f1r-11">
          <mxGeometry relative="1" as="geometry">
            <mxPoint x="-120" y="662.8" as="targetPoint" />
          </mxGeometry>
        </mxCell>
        <mxCell id="fn0Ux1Jt2qbfrXhC0f1r-15" value="上线" style="edgeLabel;html=1;align=center;verticalAlign=middle;resizable=0;points=[];" vertex="1" connectable="0" parent="fn0Ux1Jt2qbfrXhC0f1r-14">
          <mxGeometry x="-0.0555" y="1" relative="1" as="geometry">
            <mxPoint as="offset" />
          </mxGeometry>
        </mxCell>
        <mxCell id="fn0Ux1Jt2qbfrXhC0f1r-22" value="" style="edgeStyle=orthogonalEdgeStyle;rounded=0;orthogonalLoop=1;jettySize=auto;html=1;" edge="1" parent="1" source="fn0Ux1Jt2qbfrXhC0f1r-11" target="fn0Ux1Jt2qbfrXhC0f1r-21">
          <mxGeometry relative="1" as="geometry">
            <Array as="points">
              <mxPoint x="250" y="593" />
            </Array>
          </mxGeometry>
        </mxCell>
        <mxCell id="fn0Ux1Jt2qbfrXhC0f1r-23" value="下线" style="edgeLabel;html=1;align=center;verticalAlign=middle;resizable=0;points=[];" vertex="1" connectable="0" parent="fn0Ux1Jt2qbfrXhC0f1r-22">
          <mxGeometry x="-0.6722" relative="1" as="geometry">
            <mxPoint as="offset" />
          </mxGeometry>
        </mxCell>
        <mxCell id="fn0Ux1Jt2qbfrXhC0f1r-37" value="" style="edgeStyle=orthogonalEdgeStyle;rounded=0;orthogonalLoop=1;jettySize=auto;html=1;" edge="1" parent="1" source="fn0Ux1Jt2qbfrXhC0f1r-11" target="fn0Ux1Jt2qbfrXhC0f1r-36">
          <mxGeometry relative="1" as="geometry" />
        </mxCell>
        <mxCell id="fn0Ux1Jt2qbfrXhC0f1r-38" value="修改" style="edgeLabel;html=1;align=center;verticalAlign=middle;resizable=0;points=[];" vertex="1" connectable="0" parent="fn0Ux1Jt2qbfrXhC0f1r-37">
          <mxGeometry x="-0.0833" y="2" relative="1" as="geometry">
            <mxPoint as="offset" />
          </mxGeometry>
        </mxCell>
        <mxCell id="fn0Ux1Jt2qbfrXhC0f1r-11" value="上线or下线or修改" style="rhombus;whiteSpace=wrap;html=1;" vertex="1" parent="1">
          <mxGeometry x="-50" y="568.4399999999999" width="110" height="48.75" as="geometry" />
        </mxCell>
        <mxCell id="fn0Ux1Jt2qbfrXhC0f1r-18" value="" style="edgeStyle=orthogonalEdgeStyle;rounded=0;orthogonalLoop=1;jettySize=auto;html=1;" edge="1" parent="1" source="fn0Ux1Jt2qbfrXhC0f1r-16" target="fn0Ux1Jt2qbfrXhC0f1r-17">
          <mxGeometry relative="1" as="geometry" />
        </mxCell>
        <mxCell id="fn0Ux1Jt2qbfrXhC0f1r-16" value="odps提交修改任务" style="shape=process;whiteSpace=wrap;html=1;backgroundOutline=1;" vertex="1" parent="1">
          <mxGeometry x="-180" y="662.8" width="120" height="60" as="geometry" />
        </mxCell>
        <mxCell id="fn0Ux1Jt2qbfrXhC0f1r-32" value="" style="edgeStyle=orthogonalEdgeStyle;rounded=0;orthogonalLoop=1;jettySize=auto;html=1;" edge="1" parent="1" source="fn0Ux1Jt2qbfrXhC0f1r-17" target="fn0Ux1Jt2qbfrXhC0f1r-31">
          <mxGeometry relative="1" as="geometry" />
        </mxCell>
        <mxCell id="fn0Ux1Jt2qbfrXhC0f1r-17" value="标签基础信息表修改状态为已上线" style="shape=process;whiteSpace=wrap;html=1;backgroundOutline=1;" vertex="1" parent="1">
          <mxGeometry x="-190" y="782.8" width="140" height="60" as="geometry" />
        </mxCell>
        <mxCell id="fn0Ux1Jt2qbfrXhC0f1r-19" value="标签刷新表写入待刷新数据" style="shape=process;whiteSpace=wrap;html=1;backgroundOutline=1;" vertex="1" parent="1">
          <mxGeometry x="100" y="1260" width="120" height="60" as="geometry" />
        </mxCell>
        <mxCell id="fn0Ux1Jt2qbfrXhC0f1r-25" value="" style="edgeStyle=orthogonalEdgeStyle;rounded=0;orthogonalLoop=1;jettySize=auto;html=1;" edge="1" parent="1" source="fn0Ux1Jt2qbfrXhC0f1r-21" target="fn0Ux1Jt2qbfrXhC0f1r-24">
          <mxGeometry relative="1" as="geometry" />
        </mxCell>
        <mxCell id="fn0Ux1Jt2qbfrXhC0f1r-21" value="odps提交修改任务" style="whiteSpace=wrap;html=1;" vertex="1" parent="1">
          <mxGeometry x="190" y="662.805" width="120" height="60" as="geometry" />
        </mxCell>
        <mxCell id="fn0Ux1Jt2qbfrXhC0f1r-34" value="" style="edgeStyle=orthogonalEdgeStyle;rounded=0;orthogonalLoop=1;jettySize=auto;html=1;" edge="1" parent="1" source="fn0Ux1Jt2qbfrXhC0f1r-24" target="fn0Ux1Jt2qbfrXhC0f1r-33">
          <mxGeometry relative="1" as="geometry" />
        </mxCell>
        <mxCell id="fn0Ux1Jt2qbfrXhC0f1r-24" value="标签基础信息表修改标签为下线状态" style="shape=process;whiteSpace=wrap;html=1;backgroundOutline=1;" vertex="1" parent="1">
          <mxGeometry x="190" y="782.795" width="120" height="60" as="geometry" />
        </mxCell>
        <mxCell id="fn0Ux1Jt2qbfrXhC0f1r-30" value="" style="edgeStyle=orthogonalEdgeStyle;rounded=0;orthogonalLoop=1;jettySize=auto;html=1;" edge="1" parent="1" source="fn0Ux1Jt2qbfrXhC0f1r-28" target="fn0Ux1Jt2qbfrXhC0f1r-29">
          <mxGeometry relative="1" as="geometry" />
        </mxCell>
        <mxCell id="fn0Ux1Jt2qbfrXhC0f1r-28" value="查询标签规则列表" style="shape=process;whiteSpace=wrap;html=1;backgroundOutline=1;" vertex="1" parent="1">
          <mxGeometry x="390" y="560" width="130" height="60" as="geometry" />
        </mxCell>
        <mxCell id="fn0Ux1Jt2qbfrXhC0f1r-29" value="标签基础信息表将展示版本修改为上一个上线规则" style="shape=process;whiteSpace=wrap;html=1;backgroundOutline=1;" vertex="1" parent="1">
          <mxGeometry x="392.5" y="690" width="125" height="60" as="geometry" />
        </mxCell>
        <mxCell id="fn0Ux1Jt2qbfrXhC0f1r-31" value="标签规则表修改草稿版本为上线" style="shape=process;whiteSpace=wrap;html=1;backgroundOutline=1;" vertex="1" parent="1">
          <mxGeometry x="-180" y="882.8" width="120" height="60" as="geometry" />
        </mxCell>
        <mxCell id="fn0Ux1Jt2qbfrXhC0f1r-33" value="标签规则表修改对应上线版本为下线" style="shape=process;whiteSpace=wrap;html=1;backgroundOutline=1;" vertex="1" parent="1">
          <mxGeometry x="190" y="882.805" width="120" height="60" as="geometry" />
        </mxCell>
        <mxCell id="fn0Ux1Jt2qbfrXhC0f1r-40" value="" style="edgeStyle=orthogonalEdgeStyle;rounded=0;orthogonalLoop=1;jettySize=auto;html=1;" edge="1" parent="1" source="fn0Ux1Jt2qbfrXhC0f1r-36" target="fn0Ux1Jt2qbfrXhC0f1r-39">
          <mxGeometry relative="1" as="geometry" />
        </mxCell>
        <mxCell id="fn0Ux1Jt2qbfrXhC0f1r-36" value="odps提交修改任务" style="shape=process;whiteSpace=wrap;html=1;backgroundOutline=1;" vertex="1" parent="1">
          <mxGeometry y="669.9949999999999" width="120" height="60" as="geometry" />
        </mxCell>
        <mxCell id="fn0Ux1Jt2qbfrXhC0f1r-39" value="标签规则表修改草稿版本为上线" style="shape=process;whiteSpace=wrap;html=1;backgroundOutline=1;" vertex="1" parent="1">
          <mxGeometry y="882.8049999999998" width="120" height="60" as="geometry" />
        </mxCell>
      </root>
    </mxGraphModel>
  </diagram>
</mxfile>
